<svg xmlns="http://www.w3.org/2000/svg" width="31.731" height="20.625" viewBox="0 0 31.731 20.625">
  <g id="Group_6899" data-name="Group 6899" transform="translate(-10 -976.362)">
    <path id="Path_54874" data-name="Path 54874" d="M12.38,976.362a2.359,2.359,0,0,0-1.264.372L24.7,988.6a1.648,1.648,0,0,0,2.305,0l13.61-11.875a2.373,2.373,0,0,0-1.264-.359Zm-2.244,1.611a2.372,2.372,0,0,0-.136.768v15.866a2.375,2.375,0,0,0,2.38,2.38H39.352a2.375,2.375,0,0,0,2.38-2.38V978.742a2.372,2.372,0,0,0-.136-.768L28.047,989.8a3.326,3.326,0,0,1-4.388-.012L10.136,977.974Z" fill="#eb2027"/>
  </g>
</svg>
