<svg xmlns="http://www.w3.org/2000/svg" xmlns:xlink="http://www.w3.org/1999/xlink" width="1920" height="712" viewBox="0 0 1920 712">
  <defs>
    <linearGradient id="linear-gradient" x1="0.5" y1="1" x2="0.5" y2="-0.074" gradientUnits="objectBoundingBox">
      <stop offset="0" stop-color="#ec1c24"/>
      <stop offset="1"/>
    </linearGradient>
    <clipPath id="clip-path">
      <rect id="Rectangle_1821" data-name="Rectangle 1821" width="155.005" height="155.005" fill="none"/>
    </clipPath>
    <clipPath id="clip-path-2">
      <rect id="Rectangle_1822" data-name="Rectangle 1822" width="170.664" height="170.664" fill="none"/>
    </clipPath>
  </defs>
  <g id="Group_6967" data-name="Group 6967" transform="translate(0 -104)">
    <rect id="Rectangle_406" data-name="Rectangle 406" width="1920" height="712" transform="translate(0 104)" fill="url(#linear-gradient)" style="mix-blend-mode: multiply;isolation: isolate"/>
    <text id="Thank_You_" data-name="Thank You!" transform="translate(1058 469)" fill="#fff" font-size="90" font-family="Montserrat-Light, Montserrat" font-weight="300" letter-spacing="0.1em"><tspan x="0" y="0">Thank </tspan><tspan y="0" font-family="Montserrat-SemiBold, Montserrat" font-weight="600">You!</tspan></text>
    <text id="We_have_received_your_enquiry_details_and_we_will_get_in_touch_with_you_soon." data-name="We have received your enquiry details and 
we will get in touch with you soon." transform="translate(1058 538)" fill="#fff" font-size="27" font-family="Montserrat-Regular, Montserrat" letter-spacing="0.02em"><tspan x="0" y="0">We have received your enquiry details and </tspan><tspan x="0" y="37">we will get in touch with you soon.</tspan></text>
    <g id="Group_6956" data-name="Group 6956" transform="translate(-520.93 -310.489)">
      <path id="Path_54879" data-name="Path 54879" d="M496.838,431.805H109.057c-11.792-10.749-25.024-20.646-31.723-35.128s-6.68-33.3,4.336-44.84c13.3-13.931,35.52-12.03,54.217-16.639,21.561-5.315,41.171-22.633,43.933-44.667,3.565-28.448-20.264-54.44-18.778-83.071,1.171-22.57,20.327-42.852,42.794-45.308,15.187-1.66,30.941,3.906,45.612-.354,13.6-3.951,23.412-15.489,35.234-23.29,13.874-9.156,31.585-13.136,47.572-8.584s29.518,18.381,31.671,34.864c2.29,17.526-7.246,37.436,2.868,51.933,7.535,10.8,22.565,12.882,35.724,12.461s27.193-2.187,38.758,4.1c10.755,5.851,17.153,17.958,18.351,30.142s-2.2,24.419-7.218,35.586c-4.385,9.759-10.035,18.99-13.333,29.168s-3.979,21.869,1.394,31.121c5.656,9.739,16.627,14.8,25.571,21.643,15.806,12.1,29.611,30.99,30.8,50.859" transform="translate(734.331 544.103)" fill="#868686"/>
      <path id="Path_54880" data-name="Path 54880" d="M452.223,57.223l22.4,56.944,47.722-26.935Z" transform="translate(746.491 553.794)" fill="#fafafa"/>
      <path id="Path_54881" data-name="Path 54881" d="M452.223,57.223l44.016,44.742L508.224,95.2Z" transform="translate(746.491 553.794)" fill="#d9d9d9"/>
      <path id="Path_54882" data-name="Path 54882" d="M506.857,94.022l-8.347,20.652-3.638-13.887Z" transform="translate(747.859 554.973)" fill="#d9d9d9"/>
      <path id="Path_54883" data-name="Path 54883" d="M498.717,114.464l-10.3-10.127,6.662-3.76Z" transform="translate(747.651 555.183)" fill="#b0b0b0"/>
      <path id="Path_54884" data-name="Path 54884" d="M172.447,417.087c-50.5-13.307-94.55-49.35-117.585-96.224-9.505-19.343-15.6-40.822-14.174-62.326s11.062-43,28.327-55.9,42.424-15.694,60.682-4.241c17.641,11.067,26.043,32.288,41.329,46.431,18.269,16.9,47.26,21.836,69.285,10.244s34.408-39.76,26.371-63.315c-7.438-21.8-28.464-35.356-46.729-49.39S183.526,108.6,186.138,85.718c2.246-19.669,19.57-34.452,37.819-42.124,34.939-14.688,79.989-8.158,103.8,21.329,25.617,31.726,20.691,78.008,9.139,117.114S308.305,260.73,314.054,301.1c4.776,33.543,25.576,63.705,53.162,83.376s61.437,29.412,95.254,31.487c33.747,2.071,69.972-4.2,94.933-27s33.394-65.334,11.317-90.941c-11.426-13.254-28.484-19.975-44.888-26.067s-33.518-12.466-45.407-25.306-16.5-34.29-5.314-47.75c12.952-15.592,47.452-17.3,59.654-33.483,8.7-11.546-1.464-33.787-11.346-44.708" transform="translate(733.298 553.115)" fill="none" stroke="#afafaf" stroke-width="2.541" stroke-dasharray="7.623 7.623"/>
      <path id="Path_54885" data-name="Path 54885" d="M143.579,351.461a240.2,240.2,0,0,1-57.348-52.842c-6.734-8.626-12.922-17.8-17.007-27.953s-5.985-21.388-3.977-32.146c1.44-7.717,5.635-15.747,13.086-18.214,5.821-1.927,12.4.078,17.243,3.832s8.249,9.044,11.259,14.386c11.612,20.614,18.739,43.379,27.326,65.424a260.99,260.99,0,0,0,14.089,31,150.935,150.935,0,0,0,8.92,14.391c2.949,4.181,8.309,8.683,10.162,13.2-4.243,3.37-19.795-8.48-23.753-11.08" transform="translate(734.064 547.036)" fill="#5c6670"/>
      <path id="Path_54886" data-name="Path 54886" d="M81.584,231.622a226.983,226.983,0,0,0,70.668,117.589" transform="translate(734.616 547.422)" fill="none" stroke="#a5a5a5" stroke-width="2.02"/>
      <path id="Path_54887" data-name="Path 54887" d="M423.241,350.634a191.653,191.653,0,0,0,50.811-35.916c6.216-6.133,12.057-12.757,16.333-20.371s6.934-16.308,6.452-25.028c-.346-6.253-2.84-13.039-8.482-15.757-4.408-2.123-9.817-1.213-14.039,1.259s-7.457,6.309-10.388,10.227c-11.308,15.116-19.289,32.4-28.349,48.959a208.317,208.317,0,0,1-14.336,23.085,120.686,120.686,0,0,1-8.538,10.47c-2.764,3.005-7.468,6.016-9.4,9.4,3.012,3.1,16.536-4.674,19.935-6.324" transform="translate(744.923 548.087)" fill="#5c6670"/>
      <path id="Path_54888" data-name="Path 54888" d="M483.747,262.12A181.12,181.12,0,0,1,415.738,347.9" transform="translate(745.322 548.4)" fill="none" stroke="#a5a5a5" stroke-width="1.612"/>
      <path id="Path_54889" data-name="Path 54889" d="M151.312,323.927c11.732-57.869-.774-120.261-33.9-169.138" transform="translate(735.761 544.96)" fill="none" stroke="#cdced3" stroke-width="2.541"/>
      <path id="Path_54897" data-name="Path 54897" d="M154.624,268.675a32.424,32.424,0,0,1,31.6-28.14c-.625,8-4.026,16.033-10.035,21.348s-13.553,7.147-21.567,6.792" transform="translate(736.955 547.708)" fill="#61a9b8"/>
      <g id="Group_6954" data-name="Group 6954" transform="translate(825.56 658.57)">
        <path id="Path_54890" data-name="Path 54890" d="M121.672,161.789a41.994,41.994,0,0,1-28.345-46.9c10.035,2.69,19.46,8.923,24.805,17.833s5.89,18.948,3.54,29.069" transform="translate(-90.587 -114.888)" fill="#cdced3"/>
        <path id="Path_54891" data-name="Path 54891" d="M131.046,179.682A32.425,32.425,0,0,1,148.5,141.133c2.677,7.562,2.832,16.286-.5,23.583s-9.482,12.035-16.949,14.966" transform="translate(-89.403 -114.047)" fill="#cdced3"/>
        <path id="Path_54892" data-name="Path 54892" d="M132.968,178.057a32.426,32.426,0,0,0-42.313-.3c5.745,5.6,13.6,9.392,21.624,9.423s14.9-3.571,20.688-9.125" transform="translate(-90.655 -113.12)" fill="#cdced3"/>
        <path id="Path_54893" data-name="Path 54893" d="M142.561,208.371a32.427,32.427,0,0,1,23.9-34.919c1.318,7.914-.048,16.53-4.6,23.136s-11.434,10.2-19.3,11.783" transform="translate(-88.997 -113.011)" fill="#cdced3"/>
        <path id="Path_54894" data-name="Path 54894" d="M144.6,207.109a32.424,32.424,0,0,0-41.614-7.666c4.682,6.513,11.759,11.619,19.652,13.046s15.295-.92,21.962-5.38" transform="translate(-90.26 -112.32)" fill="#cdced3"/>
        <path id="Path_54895" data-name="Path 54895" d="M150.2,237.113a32.422,32.422,0,0,1,26.847-32.707c.624,8-1.487,16.463-6.6,22.647s-12.278,9.165-20.25,10.059" transform="translate(-88.747 -112.019)" fill="#cdced3"/>
        <path id="Path_54896" data-name="Path 54896" d="M152.268,236.059a32.427,32.427,0,0,0-40.79-11.258c4.1,6.9,10.7,12.6,18.443,14.707s15.316.414,22.347-3.449" transform="translate(-89.987 -111.465)" fill="#cdced3"/>
        <path id="Path_54898" data-name="Path 54898" d="M156.688,268.028a32.426,32.426,0,0,0-38.545-17.457c2.976,7.449,8.616,14.107,15.934,17.393s15.066,2.789,22.611.064" transform="translate(-89.773 -110.581)" fill="#cdced3"/>
      </g>
      <path id="Path_54899" data-name="Path 54899" d="M415.175,343.276c-12.7-57.664-1.236-120.257,31.071-169.681" transform="translate(745.143 545.563)" fill="none" stroke="#cdced3" stroke-width="2.541"/>
      <path id="Path_54905" data-name="Path 54905" d="M414.551,256.442a32.424,32.424,0,0,0-27.389-32.253c-.491,8.007,1.762,16.436,6.975,22.534s12.429,8.959,20.415,9.72" transform="translate(744.404 547.184)" fill="#61a9b8"/>
      <path id="Path_54907" data-name="Path 54907" d="M410.8,288.069a32.425,32.425,0,0,0-32.067-27.607c.758,7.986,4.293,15.963,10.39,21.176s13.67,6.92,21.677,6.431" transform="translate(744.136 548.347)" fill="#61a9b8"/>
      <g id="Group_6955" data-name="Group 6955" transform="translate(1141.481 677.568)">
        <path id="Path_54900" data-name="Path 54900" d="M441.9,180.665A41.994,41.994,0,0,0,469.457,133.3c-9.988,2.857-19.309,9.247-24.5,18.244s-5.573,19.045-3.054,29.124" transform="translate(-395.37 -133.296)" fill="#cdced3"/>
        <path id="Path_54901" data-name="Path 54901" d="M432.543,198.7a32.424,32.424,0,0,0-18.091-38.252c-2.55,7.605-2.559,16.331.894,23.571s9.682,11.876,17.2,14.681" transform="translate(-396.258 -132.426)" fill="#cdced3"/>
        <path id="Path_54902" data-name="Path 54902" d="M431.266,197.109a32.425,32.425,0,0,1,42.3-1c-5.652,5.693-13.444,9.618-21.464,9.782s-14.959-3.321-20.838-8.778" transform="translate(-395.662 -131.519)" fill="#cdced3"/>
        <path id="Path_54903" data-name="Path 54903" d="M421.632,227.577a32.426,32.426,0,0,0-24.479-34.515c-1.186,7.934.325,16.527,4.987,23.056s11.6,10.006,19.492,11.459" transform="translate(-396.767 -131.381)" fill="#cdced3"/>
        <path id="Path_54904" data-name="Path 54904" d="M420.1,226.353a32.425,32.425,0,0,1,41.48-8.361c-4.573,6.591-11.563,11.813-19.431,13.373s-15.307-.665-22.048-5.013" transform="translate(-396.019 -130.715)" fill="#cdced3"/>
        <path id="Path_54906" data-name="Path 54906" d="M412.888,255.428a32.426,32.426,0,0,1,40.6-11.938c-3.983,6.963-10.492,12.775-18.195,15.012s-15.306.671-22.4-3.074" transform="translate(-396.251 -129.857)" fill="#cdced3"/>
        <path id="Path_54908" data-name="Path 54908" d="M408.931,287.47a32.424,32.424,0,0,1,38.248-18.1c-2.852,7.5-8.379,14.249-15.641,17.657s-15.017,3.039-22.607.442" transform="translate(-396.376 -128.972)" fill="#cdced3"/>
      </g>
      <path id="Path_54909" data-name="Path 54909" d="M145.953,378.543c3.206-5.834,7.462-11.234,10.26-17.236a157.874,157.874,0,0,0-25.8-25.451c-6.137-4.88-12.54-9.45-19.157-13.713L93.048,336.628c1.063-8.426,1.673-15.758,2.556-23.749A241.067,241.067,0,0,0,53.321,294.9c-3.37,5.431-6.243,11.194-10.775,15.847a141.089,141.089,0,0,0-1.374-19.322A224.353,224.353,0,0,0,0,284.778a135.384,135.384,0,0,0,.928,16.741c3.621-1.09,6.427-4.146,10.262-4.721-2.53,6.126-4.817,12.862-7.827,19.083a145.017,145.017,0,0,0,16.665,42.084c6.381-3.756,12.361-8.921,20.055-12.116-1.34,11.759-1.363,24.062-2.378,35.954a135.715,135.715,0,0,0,12.985,12.4,137.731,137.731,0,0,0,26.413,17.251c1.91-7.287,3.888-14.548,8.619-20.67,5.572,10.59,11.611,20.026,16.666,30.492a141.611,141.611,0,0,0,65.061,3.09c3.565-.683,6.553-6.388,7.661-9.845s.894-7.192.394-10.787a82.209,82.209,0,0,0-11.685-31.522c-6.294,1.489-12.662,3.243-17.871,6.334" transform="translate(732 549.126)" fill="#afafaf"/>
      <path id="Path_54910" data-name="Path 54910" d="M151.43,412.742A597.873,597.873,0,0,1,17.336,305.155" transform="translate(732.557 549.779)" fill="none" stroke="#e6e6e6" stroke-width="2.541"/>
      <path id="Path_54911" data-name="Path 54911" d="M425.821,389.592c-3.008-4-6.753-7.564-9.475-11.732a118.648,118.648,0,0,1,16.484-21.7q6.07-6.429,12.794-12.251l15.1,8.837c-1.69-6.158-2.928-11.55-4.438-17.4a181.22,181.22,0,0,1,29.551-17.892c3.088,3.682,5.841,7.665,9.712,10.644a106.221,106.221,0,0,1-1.041-14.528,168.784,168.784,0,0,1,29.929-9.345,101.627,101.627,0,0,1,1.1,12.559c-2.811-.424-5.225-2.4-8.141-2.418,2.537,4.289,4.958,9.058,7.862,13.367a109.042,109.042,0,0,1-7.911,33.1c-5.15-2.114-10.152-5.319-16.219-6.876,2.252,8.608,3.582,17.763,5.607,26.506a102.264,102.264,0,0,1-8.341,10.613,103.514,103.514,0,0,1-17.816,15.658c-2.2-5.219-4.447-10.412-8.622-14.463-3.016,8.476-6.5,16.143-9.149,24.473a106.469,106.469,0,0,1-48.092,9.244c-2.726-.127-5.559-4.055-6.753-6.508a18.365,18.365,0,0,1-1.445-7.987,61.8,61.8,0,0,1,5.333-24.707c4.842.437,9.769,1.062,13.976,2.806" transform="translate(745.027 549.749)" fill="#afafaf"/>
      <path id="Path_54912" data-name="Path 54912" d="M424.476,415.628a449.542,449.542,0,0,0,88.315-94.386" transform="translate(745.604 550.294)" fill="none" stroke="#e6e6e6" stroke-width="1.91"/>
      <path id="Path_54913" data-name="Path 54913" d="M430.247,428.793H142.711a11.155,11.155,0,0,1-11.155-11.155V233.174a11.155,11.155,0,0,1,11.155-11.155H430.247A11.155,11.155,0,0,1,441.4,233.174V417.638a11.155,11.155,0,0,1-11.155,11.155" transform="translate(736.215 547.115)"/>
      <path id="Path_54914" data-name="Path 54914" d="M428.865,322.489a9.427,9.427,0,1,1-9.428-9.428,9.428,9.428,0,0,1,9.428,9.428" transform="translate(745.14 550.032)" fill="#363636"/>
      <path id="Path_54915" data-name="Path 54915" d="M138.043,358.241h0a2.985,2.985,0,0,1-2.985-2.986V291.307a2.985,2.985,0,1,1,5.97,0v63.949a2.985,2.985,0,0,1-2.986,2.986" transform="translate(736.329 549.239)" fill="#363636"/>
      <rect id="Rectangle_1802" data-name="Rectangle 1802" width="269.945" height="191.508" transform="translate(881.595 776.764)" fill="#dce8f4"/>
      <rect id="Rectangle_1803" data-name="Rectangle 1803" width="269.938" height="12.872" transform="translate(881.598 776.767)" fill="#a6afb8"/>
      <rect id="Rectangle_1804" data-name="Rectangle 1804" width="3.417" height="4.346" transform="translate(886.028 783.735)" fill="#fc6047"/>
      <rect id="Rectangle_1805" data-name="Rectangle 1805" width="3.417" height="7.373" transform="translate(890.465 780.708)" fill="#fc6047"/>
      <rect id="Rectangle_1806" data-name="Rectangle 1806" width="3.417" height="9.467" transform="translate(895.159 778.614)" fill="#fc6047"/>
      <path id="Path_54916" data-name="Path 54916" d="M385.815,231.987v.628a.9.9,0,0,1-.9.9h-1.007a.9.9,0,0,0-.9.9v2.749a.9.9,0,0,0,.9.9h1.007a.9.9,0,0,1,.9.9v.629a.9.9,0,0,0,.9.9h14.063a.9.9,0,0,0,.9-.9v-7.621a.9.9,0,0,0-.9-.9H386.718a.9.9,0,0,0-.9.9" transform="translate(744.273 547.405)" fill="#dce8f4"/>
      <path id="Path_54917" data-name="Path 54917" d="M400.355,240.018h-2.513a.334.334,0,0,1-.334-.334v-7.816a.334.334,0,0,1,.334-.334h2.513a.334.334,0,0,1,.334.334v7.816a.334.334,0,0,1-.334.334" transform="translate(744.738 547.42)" fill="#b7fc47"/>
      <path id="Path_54918" data-name="Path 54918" d="M396.587,240.018h-2.513a.334.334,0,0,1-.334-.334v-7.816a.334.334,0,0,1,.334-.334h2.513a.334.334,0,0,1,.334.334v7.816a.334.334,0,0,1-.334.334" transform="translate(744.619 547.42)" fill="#b7fc47"/>
      <path id="Path_54919" data-name="Path 54919" d="M392.819,240.018h-2.513a.334.334,0,0,1-.334-.334v-7.816a.334.334,0,0,1,.334-.334h2.513a.334.334,0,0,1,.334.334v7.816a.334.334,0,0,1-.334.334" transform="translate(744.497 547.42)" fill="#b7fc47"/>
      <path id="Path_54920" data-name="Path 54920" d="M379.121,235.764a3.624,3.624,0,1,1-3.623-3.624,3.624,3.624,0,0,1,3.623,3.624" transform="translate(743.918 547.439)" fill="#dce8f4"/>
      <rect id="Rectangle_1807" data-name="Rectangle 1807" width="235.803" height="149.425" transform="translate(898.667 804.093)" fill="#c3ced9"/>
      <rect id="Rectangle_1808" data-name="Rectangle 1808" width="235.803" height="12.884" transform="translate(898.667 804.093)" fill="#a7b1ba"/>
      <rect id="Rectangle_1809" data-name="Rectangle 1809" width="154.373" height="6.128" transform="translate(975.322 823.654)" fill="#e0edfa"/>
      <rect id="Rectangle_1810" data-name="Rectangle 1810" width="85.201" height="6.127" transform="translate(975.322 835.322)" fill="#e0edfa"/>
      <rect id="Rectangle_1811" data-name="Rectangle 1811" width="45.84" height="6.128" transform="translate(975.322 846.988)" fill="#e0edfa"/>
      <rect id="Rectangle_1812" data-name="Rectangle 1812" width="154.373" height="6.127" transform="translate(975.322 867.218)" fill="#e0edfa"/>
      <rect id="Rectangle_1813" data-name="Rectangle 1813" width="85.201" height="6.128" transform="translate(975.322 878.883)" fill="#e0edfa"/>
      <rect id="Rectangle_1814" data-name="Rectangle 1814" width="45.84" height="6.127" transform="translate(975.322 890.552)" fill="#e0edfa"/>
      <rect id="Rectangle_1815" data-name="Rectangle 1815" width="154.373" height="6.127" transform="translate(975.322 909.759)" fill="#e0edfa"/>
      <rect id="Rectangle_1816" data-name="Rectangle 1816" width="85.201" height="6.128" transform="translate(975.322 921.425)" fill="#e0edfa"/>
      <rect id="Rectangle_1817" data-name="Rectangle 1817" width="45.84" height="6.128" transform="translate(975.322 933.092)" fill="#e0edfa"/>
      <rect id="Rectangle_1818" data-name="Rectangle 1818" width="59.864" height="33.704" transform="translate(907.915 823.654)" fill="#e0edfa"/>
      <path id="Path_54921" data-name="Path 54921" d="M170.454,308.028l29.932-16.851,29.931,16.851Z" transform="translate(737.462 549.331)" fill="#cedae6"/>
      <path id="Path_54922" data-name="Path 54922" d="M230.318,274.848,200.386,291.7l-29.931-16.851Z" transform="translate(737.462 548.808)" fill="#cedae6"/>
      <rect id="Rectangle_1819" data-name="Rectangle 1819" width="59.864" height="33.702" transform="translate(907.915 867.022)" fill="#e0edfa"/>
      <path id="Path_54923" data-name="Path 54923" d="M170.454,350.047,200.386,333.2l29.931,16.851Z" transform="translate(737.462 550.677)" fill="#cedae6"/>
      <path id="Path_54924" data-name="Path 54924" d="M230.318,316.868l-29.932,16.851-29.931-16.851Z" transform="translate(737.462 550.154)" fill="#cedae6"/>
      <rect id="Rectangle_1820" data-name="Rectangle 1820" width="59.864" height="33.702" transform="translate(907.915 910.388)" fill="#e0edfa"/>
      <path id="Path_54925" data-name="Path 54925" d="M170.454,392.067l29.932-16.851,29.931,16.851Z" transform="translate(737.462 552.024)" fill="#cedae6"/>
      <path id="Path_54926" data-name="Path 54926" d="M230.318,358.887l-29.932,16.851-29.931-16.851Z" transform="translate(737.462 551.501)" fill="#cedae6"/>
      <g id="Group_6950" data-name="Group 6950" transform="translate(881.595 776.764)" opacity="0.44">
        <g id="Group_6949" data-name="Group 6949">
          <g id="Group_6948" data-name="Group 6948" clip-path="url(#clip-path)">
            <path id="Path_54927" data-name="Path 54927" d="M241.411,229.412l-96.461,96.47v-84.3l12.18-12.171Z" transform="translate(-144.95 -229.412)" fill="#fff"/>
            <path id="Path_54928" data-name="Path 54928" d="M299.955,229.412,144.95,384.417V341.3L256.834,229.412Z" transform="translate(-144.95 -229.412)" fill="#fff"/>
          </g>
        </g>
      </g>
      <g id="Group_6953" data-name="Group 6953" transform="translate(980.874 797.608)" opacity="0.44">
        <g id="Group_6952" data-name="Group 6952">
          <g id="Group_6951" data-name="Group 6951" clip-path="url(#clip-path-2)">
            <path id="Path_54929" data-name="Path 54929" d="M411.812,249.609V333.9l-86.383,86.374H241.148Z" transform="translate(-241.147 -249.609)" fill="#fff"/>
            <path id="Path_54930" data-name="Path 54930" d="M408.716,346.217v43.121l-27.849,27.839H337.756Z" transform="translate(-238.051 -246.513)" fill="#fff"/>
          </g>
        </g>
      </g>
      <path id="Path_54931" data-name="Path 54931" d="M189.079,226.349l80.032-62.014a14.029,14.029,0,0,1,17.187,0l80.032,62.014V330.276H189.079Z" transform="translate(738.06 545.172)" fill="#cc8c03"/>
      <rect id="Rectangle_1823" data-name="Rectangle 1823" width="136.243" height="149.83" transform="translate(947.643 716.436)" fill="#fafafa"/>
      <rect id="Rectangle_1824" data-name="Rectangle 1824" width="119.84" height="4.568" transform="translate(955.845 725.455)" fill="#dbdbdb"/>
      <rect id="Rectangle_1825" data-name="Rectangle 1825" width="101.845" height="4.568" transform="translate(955.845 734.637)" fill="#dbdbdb"/>
      <rect id="Rectangle_1826" data-name="Rectangle 1826" width="85.32" height="4.568" transform="translate(955.845 743.817)" fill="#dbdbdb"/>
      <rect id="Rectangle_1827" data-name="Rectangle 1827" width="85.32" height="4.568" transform="translate(955.845 761.444)" fill="#dbdbdb"/>
      <rect id="Rectangle_1828" data-name="Rectangle 1828" width="63.286" height="4.568" transform="translate(955.845 770.258)" fill="#dbdbdb"/>
      <rect id="Rectangle_1829" data-name="Rectangle 1829" width="63.286" height="4.568" transform="translate(1015.764 788.723)" fill="#dbdbdb"/>
      <rect id="Rectangle_1830" data-name="Rectangle 1830" width="51.473" height="4.568" transform="translate(1027.577 797.719)" fill="#dbdbdb"/>
      <path id="Path_54932" data-name="Path 54932" d="M277.7,276.324,189.08,224.391V328.256Z" transform="translate(738.06 547.191)" fill="#f7a800"/>
      <path id="Path_54933" data-name="Path 54933" d="M274.953,276.324l88.625-51.933V328.256Z" transform="translate(740.811 547.191)" fill="#f7a800"/>
      <path id="Path_54934" data-name="Path 54934" d="M269.111,265.035l-80.032,62.014H366.33L286.3,265.035a14.031,14.031,0,0,0-17.188,0" transform="translate(738.06 548.399)" fill="#ffce67"/>
      <path id="Path_54935" data-name="Path 54935" d="M375.119,224.821a13.863,13.863,0,1,1-13.863-13.863,13.863,13.863,0,0,1,13.863,13.863" transform="translate(743.133 546.76)" fill="#e75300"/>
      <path id="Path_54936" data-name="Path 54936" d="M357.995,217.581V230.95h-3.781V220.5H351.73v-2.922Z" transform="translate(743.272 546.972)" fill="#fff"/>
      <path id="Path_54937" data-name="Path 54937" d="M368.917,223.6a3.811,3.811,0,0,1,1.347,3.056,4.267,4.267,0,0,1-.641,2.282,4.431,4.431,0,0,1-1.947,1.663,7.544,7.544,0,0,1-3.238.62,11.569,11.569,0,0,1-2.8-.344,8,8,0,0,1-2.378-.974l1.355-2.845a6.549,6.549,0,0,0,1.768.822,6.808,6.808,0,0,0,1.938.286,2.855,2.855,0,0,0,1.556-.373,1.17,1.17,0,0,0,.582-1.041,1.107,1.107,0,0,0-.573-1.011,4.237,4.237,0,0,0-2.025-.344h-3.628l.668-7.812h8.518V220.5h-5.386l-.172,1.947h.9a6.313,6.313,0,0,1,4.155,1.147" transform="translate(743.513 546.972)" fill="#fff"/>
      <path id="Path_54938" data-name="Path 54938" d="M139.927,105.034a12.133,12.133,0,0,1,6.269,1.949,11.863,11.863,0,0,1,4.268,4.955,10.852,10.852,0,0,1,1.159,4.331,6.383,6.383,0,0,1-.808,3.482,5.648,5.648,0,0,1-2.515,2.255,5.11,5.11,0,0,1-2.615.548,3.734,3.734,0,0,1-2.239-.99,4.888,4.888,0,0,1-3.11,4.228,5.854,5.854,0,0,1-3.221.537,6.505,6.505,0,0,1-3.185-1.282,7.791,7.791,0,0,1-2.392-3,7.912,7.912,0,0,1-.833-3.744,6.3,6.3,0,0,1,1.009-3.261,5.987,5.987,0,0,1,2.481-2.159,5.053,5.053,0,0,1,4.281-.235l-.6-1.262,4.2-2,3.738,7.861a2.019,2.019,0,0,0,.873,1.038,1.14,1.14,0,0,0,1-.032q1.625-.771-.276-4.767a9.185,9.185,0,0,0-3.218-3.81,8.719,8.719,0,0,0-4.65-1.439,11.556,11.556,0,0,0-5.328,1.223,10.811,10.811,0,0,0-4.255,3.446,9.137,9.137,0,0,0-1.735,4.759,10.178,10.178,0,0,0,1.028,5.153,10.534,10.534,0,0,0,3.353,4.125,8.871,8.871,0,0,0,4.735,1.683,10.774,10.774,0,0,0,5.326-1.127,13.014,13.014,0,0,0,4.589-3.574l2.265,2.3a13.04,13.04,0,0,1-2.368,2.232,18.142,18.142,0,0,1-3.127,1.9,15.041,15.041,0,0,1-7.32,1.585,12.245,12.245,0,0,1-6.43-2.157,13.226,13.226,0,0,1-4.452-5.341,13.032,13.032,0,0,1-1.3-6.791,12.33,12.33,0,0,1,2.429-6.354,15.272,15.272,0,0,1,5.9-4.7,14.953,14.953,0,0,1,7.078-1.565m1.324,15.077a3.463,3.463,0,0,0-.333-2.528,3.421,3.421,0,0,0-1.738-1.828,2.645,2.645,0,0,0-2.211.1,2.6,2.6,0,0,0-1.462,1.644,3.459,3.459,0,0,0,.333,2.5,3.516,3.516,0,0,0,1.732,1.847,2.575,2.575,0,0,0,2.2-.085,2.642,2.642,0,0,0,1.475-1.649" transform="translate(735.988 543.366)" fill="#bc050b"/>
      <path id="Path_54939" data-name="Path 54939" d="M367.882,110.665l-1.327,4.3,3.814.7-.724,3.937-4.3-.792-1.417,4.441-4.15-.764,1.416-4.441-3.754-.69-1.417,4.44-4.149-.764,1.415-4.44-3.845-.708.724-3.936,4.334.8,1.327-4.3-3.843-.707.722-3.937,4.334.8,1.417-4.44,4.15.764-1.415,4.44,3.753.691,1.417-4.441,4.15.764-1.416,4.441,3.845.707-.724,3.937Zm-4.15-.764-3.755-.69-1.326,4.3,3.752.69Z" transform="translate(743.197 543.21)" fill="#bc050b"/>
      <path id="Path_54940" data-name="Path 54940" d="M176.967,369.432h-51.38a28.236,28.236,0,0,1,0-56.471h23.145A28.236,28.236,0,0,1,176.967,341.2Z" transform="translate(735.12 550.029)" fill="#f7a800"/>
      <path id="Path_54941" data-name="Path 54941" d="M136.586,319.633a21.349,21.349,0,1,0,21.349,21.349,21.372,21.372,0,0,0-21.349-21.349m-18.594,21.349a18.519,18.519,0,0,1,.485-4.156,32.469,32.469,0,0,1,5.284-1.838A34.406,34.406,0,0,0,123.5,345.6c-1.692-.442-3.442-.98-5.239-1.612a18.567,18.567,0,0,1-.265-3m8.588-6.627a50.956,50.956,0,0,1,18.863.136,35.906,35.906,0,0,1,.448,12.315,51.777,51.777,0,0,1-19.569-.548,31.065,31.065,0,0,1,.258-11.9m21.758.757a65.423,65.423,0,0,1,6.4,1.878,17.83,17.83,0,0,1,.157,7.129,33,33,0,0,1-6.16,2.1,38.839,38.839,0,0,0-.4-11.107m5.377-1.366q-3.1-.986-5.994-1.613a50.948,50.948,0,0,0-2.487-7.6,18.7,18.7,0,0,1,8.481,9.211m-12.176-10.667a45.035,45.035,0,0,1,3.216,8.484,53.357,53.357,0,0,0-17.421-.181,36.183,36.183,0,0,1,3.515-8.078,18.273,18.273,0,0,1,10.69-.226M126.8,325.2a42.353,42.353,0,0,0-2.378,6.75,40.029,40.029,0,0,0-4.775,1.406A18.691,18.691,0,0,1,126.8,325.2m-7.726,21.966c1.706.552,3.358,1.01,4.968,1.4a31.428,31.428,0,0,0,3.467,8.626,18.67,18.67,0,0,1-8.435-10.025M132,358.982a30.308,30.308,0,0,1-4.982-9.765,57.571,57.571,0,0,0,10.821,1.071,49.929,49.929,0,0,0,7.45-.551,26.616,26.616,0,0,1-4.462,9.332,17.981,17.981,0,0,1-8.828-.087m13.141-1.51a29.435,29.435,0,0,0,3.1-8.277,39.757,39.757,0,0,0,5.727-1.684,18.674,18.674,0,0,1-8.829,9.961" transform="translate(735.692 550.243)" fill="#fafafa"/>
      <path id="Path_54955" data-name="Path 54955" d="M313.414,143.736q-.246-.093-.492-.161c-.045-.162-.1-.324-.16-.486a5.163,5.163,0,0,0-1.3-1.957,5.177,5.177,0,0,0-1.306,1.957c-.062.164-.116.327-.161.491a5.018,5.018,0,0,0-.49.161,5.162,5.162,0,0,0-1.957,1.3,5.178,5.178,0,0,0,1.957,1.306c.162.061.324.115.486.159.045.164.1.328.161.492a5.132,5.132,0,0,0,1.31,1.957,5.132,5.132,0,0,0,1.31-1.957c.062-.162.115-.325.159-.487.163-.045.325-.1.488-.16a5.132,5.132,0,0,0,1.957-1.31,5.132,5.132,0,0,0-1.957-1.31" transform="translate(741.856 544.523)" fill="#dbf6ff"/>
      <rect id="Rectangle_1831" data-name="Rectangle 1831" width="619.536" height="435.908" transform="translate(732 540)" fill="none"/>
      <rect id="Rectangle_1832" data-name="Rectangle 1832" width="619.536" height="435.908" transform="translate(732 540)" fill="none"/>
    </g>
  </g>
</svg>
