<svg xmlns="http://www.w3.org/2000/svg" width="202.702" height="53.711" viewBox="0 0 202.702 53.711">
  <g id="Group_341" data-name="Group 341" transform="translate(0.5 0.5)">
    <g id="Group_333" data-name="Group 333" transform="translate(127.105)">
      <g id="Group_332" data-name="Group 332">
        <path id="Path_1653" data-name="Path 1653" d="M1095.377,95.05a6.341,6.341,0,1,1-6.34-6.341,6.34,6.34,0,0,1,6.34,6.341" transform="translate(-1082.696 -88.709)" stroke="#cdced3" stroke-width="1"/>
      </g>
    </g>
    <g id="Group_335" data-name="Group 335" transform="translate(39.327 8.961)">
      <g id="Group_334" data-name="Group 334">
        <path id="Path_1654" data-name="Path 1654" d="M1172.106,114.406a16.708,16.708,0,0,0-3.48-5.743,14.9,14.9,0,0,0-5.337-3.614,18.146,18.146,0,0,0-6.824-1.25,19.629,19.629,0,0,0-7.16,1.284,17.15,17.15,0,0,0-5.744,3.614,16.888,16.888,0,0,0-3.85,5.674,18.959,18.959,0,0,0-1.419,7.466c0,.526.034,1.029.067,1.534a9.383,9.383,0,0,0-2.16-2.412,13.568,13.568,0,0,0-3.48-1.96,25.507,25.507,0,0,0-3.816-1.148,31.56,31.56,0,0,1-4.7-1.351,2.084,2.084,0,0,1-1.452-2.027,2.134,2.134,0,0,1,1.316-2.094,6.776,6.776,0,0,1,2.872-.608,8.779,8.779,0,0,1,3.851.879,12.324,12.324,0,0,1,3.175,2.163l6.081-6.284a15.986,15.986,0,0,0-6.114-3.547,23.66,23.66,0,0,0-7.4-1.182,19.376,19.376,0,0,0-4.9.643,14.749,14.749,0,0,0-4.492,1.993,10.874,10.874,0,0,0-3.311,3.478,9.835,9.835,0,0,0-1.284,5.169,8.7,8.7,0,0,0,.879,4.054,9.059,9.059,0,0,0,2.263,2.837,11.1,11.1,0,0,0,3.142,1.824,26.036,26.036,0,0,0,3.513,1.081,29.361,29.361,0,0,1,5.067,1.554,2.427,2.427,0,0,1,1.622,2.3,2.3,2.3,0,0,1-1.318,2.263,6.025,6.025,0,0,1-2.667.643,10.13,10.13,0,0,1-4.595-1.082,12.35,12.35,0,0,1-3.649-2.7l-5.525,5.825v-28.8h-21.274l-5.879,21.281H1084l-6.215-21.281h-11.148l-6.013,21.281h-.2l-5.81-21.281h-16.472V96.03H1027.26v8.85h-16.281v33.645h11.08v-25.4h5.269v14.224a18.5,18.5,0,0,0,.607,4.91,9.573,9.573,0,0,0,1.994,3.793,8.792,8.792,0,0,0,3.682,2.439,16.559,16.559,0,0,0,5.675.846,20.656,20.656,0,0,0,3.513-.3,18.227,18.227,0,0,0,2.906-.71l-.135-8.106a5.913,5.913,0,0,1-1.521.4,11.708,11.708,0,0,1-1.722.136,3.9,3.9,0,0,1-3.276-1.187,5.791,5.791,0,0,1-.913-3.56V113.124h7.361l8.773,25.4h11.147l6.487-20.944h.135l6.62,20.944h11.148l10.4-29.929v29.929h11.08V135a17.215,17.215,0,0,0,5.9,3.291,25.365,25.365,0,0,0,8.074,1.318,22.24,22.24,0,0,0,5.135-.608,14.431,14.431,0,0,0,4.628-1.958,10.529,10.529,0,0,0,3.344-3.548,9.988,9.988,0,0,0,1.237-4.483c.053.13.09.269.147.4a15.936,15.936,0,0,0,3.986,5.574,17.368,17.368,0,0,0,5.91,3.445,21.521,21.521,0,0,0,7.161,1.182,20.682,20.682,0,0,0,9.019-1.858,15.589,15.589,0,0,0,6.25-5.3l-7.7-4.865a8.824,8.824,0,0,1-2.973,2.535,9.335,9.335,0,0,1-4.459.979,8.96,8.96,0,0,1-5.371-1.791,7.293,7.293,0,0,1-1.825-1.993,5.881,5.881,0,0,1-.845-2.568h24.39a11.9,11.9,0,0,0,.066-1.284v-1.35A22.129,22.129,0,0,0,1172.106,114.406Zm-23.207,3.445a6.029,6.029,0,0,1,.676-2.465,6.874,6.874,0,0,1,1.622-2.061,7.694,7.694,0,0,1,2.365-1.386,8.4,8.4,0,0,1,2.973-.507,6.249,6.249,0,0,1,4.964,1.892,6.64,6.64,0,0,1,1.656,4.526Z" transform="translate(-1010.979 -96.03)" stroke="#cdced3" stroke-width="1"/>
      </g>
    </g>
    <g id="Group_337" data-name="Group 337" transform="translate(127.093)">
      <g id="Group_336" data-name="Group 336">
        <path id="Path_1655" data-name="Path 1655" d="M1095.367,95.05a6.341,6.341,0,1,1-6.34-6.341,6.341,6.341,0,0,1,6.34,6.341" transform="translate(-1082.686 -88.709)" stroke="#cdced3" stroke-width="1"/>
      </g>
    </g>
    <g id="Group_338" data-name="Group 338" transform="translate(37.868)">
      <path id="Path_1656" data-name="Path 1656" d="M1022.468,95.05c0,4.985-5.754,8.629-10.985,4.645-3.984-5.23-.34-10.986,4.645-10.986a6.341,6.341,0,0,1,6.34,6.341" transform="translate(-1009.787 -88.709)" fill="#eb2027" stroke="#cdced3" stroke-width="1"/>
    </g>
    <g id="Group_340" data-name="Group 340">
      <g id="Group_339" data-name="Group 339">
        <path id="Path_1657" data-name="Path 1657" d="M997.871,103.2a18.933,18.933,0,0,0-8.153,1.833V88.709h-10.87V125.9a12.81,12.81,0,0,0,4.951,10.149c15.725,12.122,33.093,1.174,33.093-13.828A19.022,19.022,0,0,0,997.871,103.2m5.708,25.19c-8.573,6.186-18.064-3.3-11.877-11.877a2.065,2.065,0,0,1,.445-.448c8.58-6.215,18.095,3.3,11.878,11.878A2.032,2.032,0,0,1,1003.579,128.392Z" transform="translate(-978.848 -88.709)" fill="#eb2027" stroke="#cdced3" stroke-width="1"/>
      </g>
    </g>
  </g>
</svg>
