<svg xmlns="http://www.w3.org/2000/svg" width="26.93" height="26.93" viewBox="0 0 26.93 26.93">
  <path id="Path_54872" data-name="Path 54872" d="M26.93,21.269a6.312,6.312,0,0,1-.191,1.348,7.6,7.6,0,0,1-.4,1.31A5.128,5.128,0,0,1,24,25.955a7.091,7.091,0,0,1-4.562.909,8.269,8.269,0,0,1-1.1-.239q-.612-.172-.909-.277t-1.062-.392q-.765-.287-.937-.344a17.324,17.324,0,0,1-3.347-1.588A28.374,28.374,0,0,1,7.029,19.9a28.374,28.374,0,0,1-4.122-5.059A17.324,17.324,0,0,1,1.32,11.5q-.057-.172-.344-.937T.583,9.5Q.478,9.2.306,8.588a8.265,8.265,0,0,1-.239-1.1,7.369,7.369,0,0,1-.067-1A7.416,7.416,0,0,1,.975,2.926,5.128,5.128,0,0,1,3,.593a7.6,7.6,0,0,1,1.31-.4A6.312,6.312,0,0,1,5.661,0a1.071,1.071,0,0,1,.4.057q.344.115,1.014,1.454.21.363.574,1.033T8.32,3.758q.306.545.593,1.023.057.076.335.478a5.344,5.344,0,0,1,.411.679,1.248,1.248,0,0,1,.134.545,1.587,1.587,0,0,1-.545.956A9.322,9.322,0,0,1,8.062,8.492,11.515,11.515,0,0,0,6.876,9.506a1.457,1.457,0,0,0-.545.88,1.292,1.292,0,0,0,.1.43,4.176,4.176,0,0,0,.163.392q.067.134.268.459t.22.363A20.076,20.076,0,0,0,10.4,16.525,20.076,20.076,0,0,0,14.9,19.853q.038.019.363.22t.459.268a4.174,4.174,0,0,0,.392.163,1.292,1.292,0,0,0,.43.1,1.457,1.457,0,0,0,.88-.545,11.518,11.518,0,0,0,1.014-1.186,9.321,9.321,0,0,1,1.052-1.186,1.587,1.587,0,0,1,.956-.545,1.248,1.248,0,0,1,.545.134,5.341,5.341,0,0,1,.679.411q.4.277.478.335.478.287,1.023.593t1.215.669q.669.363,1.033.574,1.339.669,1.454,1.014a1.071,1.071,0,0,1,.057.4Zm0,0" fill="#eb2027"/>
</svg>
